<svg width="64" height="64" viewBox="0 0 64 64" fill="none" xmlns="http://www.w3.org/2000/svg">
  <rect width="64" height="64" rx="12" fill="#3776ab"/>
  <path d="M32 8C24 8 18 14 18 22V26H32V28H14C10 28 6 32 6 36V46C6 50 10 54 14 54H18V48C18 44 22 40 26 40H38C42 40 46 36 46 32V22C46 14 40 8 32 8ZM28 14C30 14 32 16 32 18C32 20 30 22 28 22C26 22 24 20 24 18C24 16 26 14 28 14Z" fill="white"/>
  <path d="M32 56C40 56 46 50 46 42V38H32V36H50C54 36 58 32 58 28V18C58 14 54 10 50 10H46V16C46 20 42 24 38 24H26C22 24 18 28 18 32V42C18 50 24 56 32 56ZM36 50C34 50 32 48 32 46C32 44 34 42 36 42C38 42 40 44 40 46C40 48 38 50 36 50Z" fill="#ffd343"/>
</svg>
